# Gravestair — generated by tools/weaponkit
# Units: studs (1 stud = 0.28 m). Y up, blade along +Y.
mtllib Gravestair.mtl
o Handle
usemtl Fabric_3f3229
v -0.11 -0.68 -0.13
v 0.11 -0.68 -0.13
v 0.11 0.68 -0.13
v -0.11 0.68 -0.13
v -0.11 -0.68 0.13
v 0.11 -0.68 0.13
v 0.11 0.68 0.13
v -0.11 0.68 0.13
f 1 4 3 2
f 5 6 7 8
f 1 2 6 5
f 4 8 7 3
f 1 5 8 4
f 2 3 7 6
o Cord1
usemtl Fabric_251d18
v -0.125 -0.506619 -0.14653
v 0.125 -0.506619 -0.14653
v 0.125 -0.458323 -0.133589
v -0.125 -0.458323 -0.133589
v -0.125 -0.581677 0.133589
v 0.125 -0.581677 0.133589
v 0.125 -0.533381 0.14653
v -0.125 -0.533381 0.14653
f 9 12 11 10
f 13 14 15 16
f 9 10 14 13
f 12 16 15 11
f 9 13 16 12
f 10 11 15 14
o Cord2
usemtl Fabric_251d18
v -0.125 -0.346619 -0.14653
v 0.125 -0.346619 -0.14653
v 0.125 -0.298323 -0.133589
v -0.125 -0.298323 -0.133589
v -0.125 -0.421677 0.133589
v 0.125 -0.421677 0.133589
v 0.125 -0.373381 0.14653
v -0.125 -0.373381 0.14653
f 17 20 19 18
f 21 22 23 24
f 17 18 22 21
f 20 24 23 19
f 17 21 24 20
f 18 19 23 22
o Cord3
usemtl Fabric_251d18
v -0.125 -0.186619 -0.14653
v 0.125 -0.186619 -0.14653
v 0.125 -0.138323 -0.133589
v -0.125 -0.138323 -0.133589
v -0.125 -0.261677 0.133589
v 0.125 -0.261677 0.133589
v 0.125 -0.213381 0.14653
v -0.125 -0.213381 0.14653
f 25 28 27 26
f 29 30 31 32
f 25 26 30 29
f 28 32 31 27
f 25 29 32 28
f 26 27 31 30
o Cord4
usemtl Fabric_251d18
v -0.125 0.193381 -0.14653
v 0.125 0.193381 -0.14653
v 0.125 0.241677 -0.133589
v -0.125 0.241677 -0.133589
v -0.125 0.118323 0.133589
v 0.125 0.118323 0.133589
v 0.125 0.166619 0.14653
v -0.125 0.166619 0.14653
f 33 36 35 34
f 37 38 39 40
f 33 34 38 37
f 36 40 39 35
f 33 37 40 36
f 34 35 39 38
o Cord5
usemtl Fabric_251d18
v -0.125 0.353381 -0.14653
v 0.125 0.353381 -0.14653
v 0.125 0.401677 -0.133589
v -0.125 0.401677 -0.133589
v -0.125 0.278323 0.133589
v 0.125 0.278323 0.133589
v 0.125 0.326619 0.14653
v -0.125 0.326619 0.14653
f 41 44 43 42
f 45 46 47 48
f 41 42 46 45
f 44 48 47 43
f 41 45 48 44
f 42 43 47 46
o Cord6
usemtl Fabric_251d18
v -0.125 0.513381 -0.14653
v 0.125 0.513381 -0.14653
v 0.125 0.561677 -0.133589
v -0.125 0.561677 -0.133589
v -0.125 0.438323 0.133589
v 0.125 0.438323 0.133589
v 0.125 0.486619 0.14653
v -0.125 0.486619 0.14653
f 49 52 51 50
f 53 54 55 56
f 49 50 54 53
f 52 56 55 51
f 49 53 56 52
f 50 51 55 54
o Lashing
usemtl Fabric_6e4230
v -0.135 -0.065 -0.155
v 0.135 -0.065 -0.155
v 0.135 0.065 -0.155
v -0.135 0.065 -0.155
v -0.135 -0.065 0.155
v 0.135 -0.065 0.155
v 0.135 0.065 0.155
v -0.135 0.065 0.155
f 57 60 59 58
f 61 62 63 64
f 57 58 62 61
f 60 64 63 59
f 57 61 64 60
f 58 59 63 62
o LashingKnot
usemtl Fabric_6e4230
v 0.12 0 -0.06364
v 0.18 0 -0.06364
v 0.18 0.06364 0
v 0.12 0.06364 0
v 0.12 -0.06364 0
v 0.18 -0.06364 0
v 0.18 0 0.06364
v 0.12 0 0.06364
f 65 68 67 66
f 69 70 71 72
f 65 66 70 69
f 68 72 71 67
f 65 69 72 68
f 66 67 71 70
o LashingTail
usemtl Fabric_6e4230
v 0.11 -0.183302 -0.016014
v 0.14 -0.183302 -0.016014
v 0.14 -0.054015 -0.029603
v 0.11 -0.054015 -0.029603
v 0.11 -0.175985 0.053603
v 0.14 -0.175985 0.053603
v 0.14 -0.046698 0.040014
v 0.11 -0.046698 0.040014
f 73 76 75 74
f 77 78 79 80
f 73 74 78 77
f 76 80 79 75
f 73 77 80 76
f 74 75 79 78
o LashingTailEnd
usemtl Fabric_6e4230
v 0.11 -0.225 0.047
v 0.14 -0.225 0.047
v 0.14 -0.18 0.047
v 0.11 -0.18 0.047
v 0.11 -0.18 -0.023
v 0.14 -0.18 -0.023
f 81 82 83 84
f 84 83 86 85
f 81 85 86 82
f 81 84 85
f 82 86 83
o Throat
usemtl CorrodedMetal_2a2928
v -0.15 0.6 -0.15
v 0.15 0.6 -0.15
v 0.15 0.72 -0.15
v -0.15 0.72 -0.15
v -0.15 0.6 0.15
v 0.15 0.6 0.15
v 0.15 0.72 0.15
v -0.15 0.72 0.15
f 87 90 89 88
f 91 92 93 94
f 87 88 92 91
f 90 94 93 89
f 87 91 94 90
f 88 89 93 92
o ThroatFlankSpine
usemtl CorrodedMetal_2a2928
v -0.15 0.72 0.24
v 0.15 0.72 0.24
v 0.15 0.72 0.15
v -0.15 0.72 0.15
v -0.15 0.6 0.15
v 0.15 0.6 0.15
f 95 96 97 98
f 98 97 100 99
f 95 99 100 96
f 95 98 99
f 96 100 97
o ThroatFlankFwd
usemtl CorrodedMetal_2a2928
v 0.15 0.72 -0.24
v -0.15 0.72 -0.24
v -0.15 0.72 -0.15
v 0.15 0.72 -0.15
v 0.15 0.6 -0.15
v -0.15 0.6 -0.15
f 101 102 103 104
f 104 103 106 105
f 101 105 106 102
f 101 104 105
f 102 106 103
o Ferrule
usemtl CorrodedMetal_2a2928
v -0.15 -0.72 -0.16
v 0.15 -0.72 -0.16
v 0.15 -0.62 -0.16
v -0.15 -0.62 -0.16
v -0.15 -0.72 0.16
v 0.15 -0.72 0.16
v 0.15 -0.62 0.16
v -0.15 -0.62 0.16
f 107 110 109 108
f 111 112 113 114
f 107 108 112 111
f 110 114 113 109
f 107 111 114 110
f 108 109 113 112
o PommelCrown
usemtl CorrodedMetal_2a2928
v -0.19 -0.8 -0.18
v 0.19 -0.8 -0.18
v 0.19 -0.72 -0.18
v -0.19 -0.72 -0.18
v -0.19 -0.8 0.18
v 0.19 -0.8 0.18
v 0.19 -0.72 0.18
v -0.19 -0.72 0.18
f 115 118 117 116
f 119 120 121 122
f 115 116 120 119
f 118 122 121 117
f 115 119 122 118
f 116 117 121 120
o PommelChamferSpine
usemtl CorrodedMetal_2a2928
v 0.19 -0.8 0.27
v -0.19 -0.8 0.27
v -0.19 -0.8 0.18
v 0.19 -0.8 0.18
v 0.19 -0.72 0.18
v -0.19 -0.72 0.18
f 123 124 125 126
f 126 125 128 127
f 123 127 128 124
f 123 126 127
f 124 128 125
o PommelChamferFwd
usemtl CorrodedMetal_2a2928
v -0.19 -0.8 -0.27
v 0.19 -0.8 -0.27
v 0.19 -0.8 -0.18
v -0.19 -0.8 -0.18
v -0.19 -0.72 -0.18
v 0.19 -0.72 -0.18
f 129 130 131 132
f 132 131 134 133
f 129 133 134 130
f 129 132 133
f 130 134 131
o PommelPostFwd
usemtl CorrodedMetal_2a2928
v -0.19 -1.14 -0.27
v 0.19 -1.14 -0.27
v 0.19 -0.8 -0.27
v -0.19 -0.8 -0.27
v -0.19 -1.14 -0.04
v 0.19 -1.14 -0.04
v 0.19 -0.8 -0.04
v -0.19 -0.8 -0.04
f 135 138 137 136
f 139 140 141 142
f 135 136 140 139
f 138 142 141 137
f 135 139 142 138
f 136 137 141 140
o PommelPostSpine
usemtl CorrodedMetal_2a2928
v -0.19 -1 0.04
v 0.19 -1 0.04
v 0.19 -0.8 0.04
v -0.19 -0.8 0.04
v -0.19 -1 0.27
v 0.19 -1 0.27
v 0.19 -0.8 0.27
v -0.19 -0.8 0.27
f 143 146 145 144
f 147 148 149 150
f 143 144 148 147
f 146 150 149 145
f 143 147 150 146
f 144 145 149 148
o PommelLintel
usemtl CorrodedMetal_2a2928
v -0.19 -0.835 -0.04
v 0.19 -0.835 -0.04
v 0.19 -0.8 -0.04
v -0.19 -0.8 -0.04
v -0.19 -0.835 0.04
v 0.19 -0.835 0.04
v 0.19 -0.8 0.04
v -0.19 -0.8 0.04
f 151 154 153 152
f 155 156 157 158
f 151 152 156 155
f 154 158 157 153
f 151 155 158 154
f 152 153 157 156
o PommelSill
usemtl CorrodedMetal_2a2928
v -0.19 -1.14 -0.04
v 0.19 -1.14 -0.04
v 0.19 -0.965 -0.04
v -0.19 -0.965 -0.04
v -0.19 -1.14 0.04
v 0.19 -1.14 0.04
v 0.19 -0.965 0.04
v -0.19 -0.965 0.04
f 159 162 161 160
f 163 164 165 166
f 159 160 164 163
f 162 166 165 161
f 159 163 166 162
f 160 161 165 164
o PommelTang
usemtl Metal_54585b
v -0.13 -0.975 -0.05
v 0.13 -0.975 -0.05
v 0.13 -0.825 -0.05
v -0.13 -0.825 -0.05
v -0.13 -0.975 0.05
v 0.13 -0.975 0.05
v 0.13 -0.825 0.05
v -0.13 -0.825 0.05
f 167 170 169 168
f 171 172 173 174
f 167 168 172 171
f 170 174 173 169
f 167 171 174 170
f 168 169 173 172
o PommelHeel
usemtl CorrodedMetal_2a2928
v -0.19 -1.14 0.04
v 0.19 -1.14 0.04
v 0.19 -1 0.04
v -0.19 -1 0.04
v -0.19 -1.14 0.08
v 0.19 -1.14 0.08
v 0.19 -1 0.08
v -0.19 -1 0.08
f 175 178 177 176
f 179 180 181 182
f 175 176 180 179
f 178 182 181 177
f 175 179 182 178
f 176 177 181 180
o PommelClip
usemtl CorrodedMetal_2a2928
v -0.19 -1 0.27
v 0.19 -1 0.27
v 0.19 -1 0.08
v -0.19 -1 0.08
v -0.19 -1.14 0.08
v 0.19 -1.14 0.08
f 183 184 185 186
f 186 185 188 187
f 183 187 188 184
f 183 186 187
f 184 188 185
o Peen
usemtl Metal_54585b
v -0.070711 -1.19 0
v 0 -1.19 -0.070711
v 0 -1.14 -0.070711
v -0.070711 -1.14 0
v 0 -1.19 0.070711
v 0.070711 -1.19 0
v 0.070711 -1.14 0
v 0 -1.14 0.070711
f 189 192 191 190
f 193 194 195 196
f 189 190 194 193
f 192 196 195 191
f 189 193 196 192
f 190 191 195 194
o GuardHub
usemtl CorrodedMetal_2a2928
v -0.18 0.72 -0.35
v 0.18 0.72 -0.35
v 0.18 0.98 -0.35
v -0.18 0.98 -0.35
v -0.18 0.72 0.35
v 0.18 0.72 0.35
v 0.18 0.98 0.35
v -0.18 0.98 0.35
f 197 200 199 198
f 201 202 203 204
f 197 198 202 201
f 200 204 203 199
f 197 201 204 200
f 198 199 203 202
o GuardHubCheekUpperPX
usemtl CorrodedMetal_2a2928
v 0.26 0.85 -0.35
v 0.26 0.85 0.35
v 0.18 0.85 0.35
v 0.18 0.85 -0.35
v 0.18 0.98 -0.35
v 0.18 0.98 0.35
f 205 206 207 208
f 208 207 210 209
f 205 209 210 206
f 205 208 209
f 206 210 207
o GuardHubCheekLowerPX
usemtl CorrodedMetal_2a2928
v 0.26 0.85 0.35
v 0.26 0.85 -0.35
v 0.18 0.85 -0.35
v 0.18 0.85 0.35
v 0.18 0.72 0.35
v 0.18 0.72 -0.35
f 211 212 213 214
f 214 213 216 215
f 211 215 216 212
f 211 214 215
f 212 216 213
o GuardHubCheekUpperNX
usemtl CorrodedMetal_2a2928
v -0.26 0.85 0.35
v -0.26 0.85 -0.35
v -0.18 0.85 -0.35
v -0.18 0.85 0.35
v -0.18 0.98 0.35
v -0.18 0.98 -0.35
f 217 218 219 220
f 220 219 222 221
f 217 221 222 218
f 217 220 221
f 218 222 219
o GuardHubCheekLowerNX
usemtl CorrodedMetal_2a2928
v -0.26 0.85 -0.35
v -0.26 0.85 0.35
v -0.18 0.85 0.35
v -0.18 0.85 -0.35
v -0.18 0.72 -0.35
v -0.18 0.72 0.35
f 223 224 225 226
f 226 225 228 227
f 223 227 228 224
f 223 226 227
f 224 228 225
o GuardSeat
usemtl CorrodedMetal_2a2928
v -0.18 0.98 -0.305
v 0.18 0.98 -0.305
v 0.18 1.05 -0.305
v -0.18 1.05 -0.305
v -0.18 0.98 0.305
v 0.18 0.98 0.305
v 0.18 1.05 0.305
v -0.18 1.05 0.305
f 229 232 231 230
f 233 234 235 236
f 229 230 234 233
f 232 236 235 231
f 229 233 236 232
f 230 231 235 234
o GuardSeatFlankSpine
usemtl CorrodedMetal_2a2928
v 0.18 0.98 0.35
v -0.18 0.98 0.35
v -0.18 0.98 0.305
v 0.18 0.98 0.305
v 0.18 1.05 0.305
v -0.18 1.05 0.305
f 237 238 239 240
f 240 239 242 241
f 237 241 242 238
f 237 240 241
f 238 242 239
o GuardSeatFlankFwd
usemtl CorrodedMetal_2a2928
v -0.18 0.98 -0.35
v 0.18 0.98 -0.35
v 0.18 0.98 -0.305
v -0.18 0.98 -0.305
v -0.18 1.05 -0.305
v 0.18 1.05 -0.305
f 243 244 245 246
f 246 245 248 247
f 243 247 248 244
f 243 246 247
f 244 248 245
o GuardArmFwdCore
usemtl CorrodedMetal_2a2928
v -0.13 0.791953 -0.21259
v 0.13 0.791953 -0.21259
v 0.13 0.511953 -0.73259
v -0.13 0.511953 -0.73259
v -0.13 0.968047 -0.30741
v 0.13 0.968047 -0.30741
v 0.13 0.688047 -0.82741
v -0.13 0.688047 -0.82741
f 249 252 251 250
f 253 254 255 256
f 249 250 254 253
f 252 256 255 251
f 249 253 256 252
f 250 251 255 254
o GuardArmFwdCheekUpperPX
usemtl CorrodedMetal_2a2928
v 0.2 0.6 -0.78
v 0.2 0.88 -0.26
v 0.13 0.88 -0.26
v 0.13 0.6 -0.78
v 0.13 0.688047 -0.82741
v 0.13 0.968047 -0.30741
f 257 258 259 260
f 260 259 262 261
f 257 261 262 258
f 257 260 261
f 258 262 259
o GuardArmFwdCheekLowerPX
usemtl CorrodedMetal_2a2928
v 0.2 0.88 -0.26
v 0.2 0.6 -0.78
v 0.13 0.6 -0.78
v 0.13 0.88 -0.26
v 0.13 0.791953 -0.21259
v 0.13 0.511953 -0.73259
f 263 264 265 266
f 266 265 268 267
f 263 267 268 264
f 263 266 267
f 264 268 265
o GuardArmFwdCheekUpperNX
usemtl CorrodedMetal_2a2928
v -0.2 0.88 -0.26
v -0.2 0.6 -0.78
v -0.13 0.6 -0.78
v -0.13 0.88 -0.26
v -0.13 0.968047 -0.30741
v -0.13 0.688047 -0.82741
f 269 270 271 272
f 272 271 274 273
f 269 273 274 270
f 269 272 273
f 270 274 271
o GuardArmFwdCheekLowerNX
usemtl CorrodedMetal_2a2928
v -0.2 0.6 -0.78
v -0.2 0.88 -0.26
v -0.13 0.88 -0.26
v -0.13 0.6 -0.78
v -0.13 0.511953 -0.73259
v -0.13 0.791953 -0.21259
f 275 276 277 278
f 278 277 280 279
f 275 279 280 276
f 275 278 279
f 276 280 277
o GuardArmSpineCore
usemtl CorrodedMetal_2a2928
v 0.13 0.791953 0.21259
v -0.13 0.791953 0.21259
v -0.13 0.511953 0.73259
v 0.13 0.511953 0.73259
v 0.13 0.968047 0.30741
v -0.13 0.968047 0.30741
v -0.13 0.688047 0.82741
v 0.13 0.688047 0.82741
f 281 284 283 282
f 285 286 287 288
f 281 282 286 285
f 284 288 287 283
f 281 285 288 284
f 282 283 287 286
o GuardArmSpineCheekUpperPX
usemtl CorrodedMetal_2a2928
v 0.2 0.88 0.26
v 0.2 0.6 0.78
v 0.13 0.6 0.78
v 0.13 0.88 0.26
v 0.13 0.968047 0.30741
v 0.13 0.688047 0.82741
f 289 290 291 292
f 292 291 294 293
f 289 293 294 290
f 289 292 293
f 290 294 291
o GuardArmSpineCheekLowerPX
usemtl CorrodedMetal_2a2928
v 0.2 0.6 0.78
v 0.2 0.88 0.26
v 0.13 0.88 0.26
v 0.13 0.6 0.78
v 0.13 0.511953 0.73259
v 0.13 0.791953 0.21259
f 295 296 297 298
f 298 297 300 299
f 295 299 300 296
f 295 298 299
f 296 300 297
o GuardArmSpineCheekUpperNX
usemtl CorrodedMetal_2a2928
v -0.2 0.6 0.78
v -0.2 0.88 0.26
v -0.13 0.88 0.26
v -0.13 0.6 0.78
v -0.13 0.688047 0.82741
v -0.13 0.968047 0.30741
f 301 302 303 304
f 304 303 306 305
f 301 305 306 302
f 301 304 305
f 302 306 303
o GuardArmSpineCheekLowerNX
usemtl CorrodedMetal_2a2928
v -0.2 0.88 0.26
v -0.2 0.6 0.78
v -0.13 0.6 0.78
v -0.13 0.88 0.26
v -0.13 0.791953 0.21259
v -0.13 0.511953 0.73259
f 307 308 309 310
f 310 309 312 311
f 307 311 312 308
f 307 310 311
f 308 312 309
o RailFwd
usemtl Metal_54585b
v -0.14 1.01 -0.29
v 0.14 1.01 -0.29
v 0.14 1.4 -0.29
v -0.14 1.4 -0.29
v -0.14 1.01 -0.1
v 0.14 1.01 -0.1
v 0.14 1.4 -0.1
v -0.14 1.4 -0.1
f 313 316 315 314
f 317 318 319 320
f 313 314 318 317
f 316 320 319 315
f 313 317 320 316
f 314 315 319 318
o RailSpine
usemtl Metal_54585b
v -0.14 1.01 0.1
v 0.14 1.01 0.1
v 0.14 1.4 0.1
v -0.14 1.4 0.1
v -0.14 1.01 0.29
v 0.14 1.01 0.29
v 0.14 1.4 0.29
v -0.14 1.4 0.29
f 321 324 323 322
f 325 326 327 328
f 321 322 326 325
f 324 328 327 323
f 321 325 328 324
f 322 323 327 326
o RicassoSill
usemtl Metal_54585b
v -0.14 1.01 -0.1
v 0.14 1.01 -0.1
v 0.14 1.1 -0.1
v -0.14 1.1 -0.1
v -0.14 1.01 0.1
v 0.14 1.01 0.1
v 0.14 1.1 0.1
v -0.14 1.1 0.1
f 329 332 331 330
f 333 334 335 336
f 329 330 334 333
f 332 336 335 331
f 329 333 336 332
f 330 331 335 334
o Capstone
usemtl Metal_54585b
v -0.16 1.4 -0.29
v 0.16 1.4 -0.29
v 0.16 1.62 -0.29
v -0.16 1.62 -0.29
v -0.16 1.4 0.29
v 0.16 1.4 0.29
v 0.16 1.62 0.29
v -0.16 1.62 0.29
f 337 340 339 338
f 341 342 343 344
f 337 338 342 341
f 340 344 343 339
f 337 341 344 340
f 338 339 343 342
o CairnMark1
usemtl CorrodedMetal_2b2c2e
v -0.166 1.427 -0.1
v 0.166 1.427 -0.1
v 0.166 1.463 -0.1
v -0.166 1.463 -0.1
v -0.166 1.427 0.1
v 0.166 1.427 0.1
v 0.166 1.463 0.1
v -0.166 1.463 0.1
f 345 348 347 346
f 349 350 351 352
f 345 346 350 349
f 348 352 351 347
f 345 349 352 348
f 346 347 351 350
o CairnMark2
usemtl CorrodedMetal_2b2c2e
v -0.166 1.485 -0.065
v 0.166 1.485 -0.065
v 0.166 1.521 -0.065
v -0.166 1.521 -0.065
v -0.166 1.485 0.065
v 0.166 1.485 0.065
v 0.166 1.521 0.065
v -0.166 1.521 0.065
f 353 356 355 354
f 357 358 359 360
f 353 354 358 357
f 356 360 359 355
f 353 357 360 356
f 354 355 359 358
o CairnMark3
usemtl CorrodedMetal_2b2c2e
v -0.166 1.543 -0.03
v 0.166 1.543 -0.03
v 0.166 1.579 -0.03
v -0.166 1.579 -0.03
v -0.166 1.543 0.03
v 0.166 1.543 0.03
v 0.166 1.579 0.03
v -0.166 1.579 0.03
f 361 364 363 362
f 365 366 367 368
f 361 362 366 365
f 364 368 367 363
f 361 365 368 364
f 362 363 367 366
o LangetFwdPX
usemtl CorrodedMetal_2a2928
v 0.14 1.05 -0.26
v 0.175 1.05 -0.26
v 0.175 1.3 -0.26
v 0.14 1.3 -0.26
v 0.14 1.05 -0.13
v 0.175 1.05 -0.13
v 0.175 1.3 -0.13
v 0.14 1.3 -0.13
f 369 372 371 370
f 373 374 375 376
f 369 370 374 373
f 372 376 375 371
f 369 373 376 372
f 370 371 375 374
o LangetFwdTipPX
usemtl CorrodedMetal_2a2928
v 0.175 1.3 -0.13
v 0.14 1.3 -0.13
v 0.14 1.3 -0.26
v 0.175 1.3 -0.26
v 0.175 1.37 -0.26
v 0.14 1.37 -0.26
f 377 378 379 380
f 380 379 382 381
f 377 381 382 378
f 377 380 381
f 378 382 379
o LangetFwdNX
usemtl CorrodedMetal_2a2928
v -0.175 1.05 -0.26
v -0.14 1.05 -0.26
v -0.14 1.3 -0.26
v -0.175 1.3 -0.26
v -0.175 1.05 -0.13
v -0.14 1.05 -0.13
v -0.14 1.3 -0.13
v -0.175 1.3 -0.13
f 383 386 385 384
f 387 388 389 390
f 383 384 388 387
f 386 390 389 385
f 383 387 390 386
f 384 385 389 388
o LangetFwdTipNX
usemtl CorrodedMetal_2a2928
v -0.14 1.3 -0.13
v -0.175 1.3 -0.13
v -0.175 1.3 -0.26
v -0.14 1.3 -0.26
v -0.14 1.37 -0.26
v -0.175 1.37 -0.26
f 391 392 393 394
f 394 393 396 395
f 391 395 396 392
f 391 394 395
f 392 396 393
o PinFwd
usemtl Metal_54585b
v -0.19 1.18 -0.237426
v 0.19 1.18 -0.237426
v 0.19 1.222426 -0.195
v -0.19 1.222426 -0.195
v -0.19 1.137574 -0.195
v 0.19 1.137574 -0.195
v 0.19 1.18 -0.152574
v -0.19 1.18 -0.152574
f 397 400 399 398
f 401 402 403 404
f 397 398 402 401
f 400 404 403 399
f 397 401 404 400
f 398 399 403 402
o LangetSpinePX
usemtl CorrodedMetal_2a2928
v 0.14 1.05 0.13
v 0.175 1.05 0.13
v 0.175 1.3 0.13
v 0.14 1.3 0.13
v 0.14 1.05 0.26
v 0.175 1.05 0.26
v 0.175 1.3 0.26
v 0.14 1.3 0.26
f 405 408 407 406
f 409 410 411 412
f 405 406 410 409
f 408 412 411 407
f 405 409 412 408
f 406 407 411 410
o LangetSpineTipPX
usemtl CorrodedMetal_2a2928
v 0.175 1.3 0.26
v 0.14 1.3 0.26
v 0.14 1.3 0.13
v 0.175 1.3 0.13
v 0.175 1.37 0.13
v 0.14 1.37 0.13
f 413 414 415 416
f 416 415 418 417
f 413 417 418 414
f 413 416 417
f 414 418 415
o LangetSpineNX
usemtl CorrodedMetal_2a2928
v -0.175 1.05 0.13
v -0.14 1.05 0.13
v -0.14 1.3 0.13
v -0.175 1.3 0.13
v -0.175 1.05 0.26
v -0.14 1.05 0.26
v -0.14 1.3 0.26
v -0.175 1.3 0.26
f 419 422 421 420
f 423 424 425 426
f 419 420 424 423
f 422 426 425 421
f 419 423 426 422
f 420 421 425 424
o LangetSpineTipNX
usemtl CorrodedMetal_2a2928
v -0.14 1.3 0.26
v -0.175 1.3 0.26
v -0.175 1.3 0.13
v -0.14 1.3 0.13
v -0.14 1.37 0.13
v -0.175 1.37 0.13
f 427 428 429 430
f 430 429 432 431
f 427 431 432 428
f 427 430 431
f 428 432 429
o PinSpine
usemtl Metal_54585b
v -0.19 1.18 0.152574
v 0.19 1.18 0.152574
v 0.19 1.222426 0.195
v -0.19 1.222426 0.195
v -0.19 1.137574 0.195
v 0.19 1.137574 0.195
v 0.19 1.18 0.237426
v -0.19 1.18 0.237426
f 433 436 435 434
f 437 438 439 440
f 433 434 438 437
f 436 440 439 435
f 433 437 440 436
f 434 435 439 438
o ShoulderFwd
usemtl Metal_54585b
v 0.16 1.62 -0.38
v -0.16 1.62 -0.38
v -0.16 1.62 -0.29
v 0.16 1.62 -0.29
v 0.16 1.47 -0.29
v -0.16 1.47 -0.29
f 441 442 443 444
f 444 443 446 445
f 441 445 446 442
f 441 444 445
f 442 446 443
o ShoulderSpine
usemtl CorrodedMetal_2b2c2e
v -0.155 1.62 0.465
v 0.155 1.62 0.465
v 0.155 1.62 0.29
v -0.155 1.62 0.29
v -0.155 1.47 0.29
v 0.155 1.47 0.29
f 447 448 449 450
f 450 449 452 451
f 447 451 452 448
f 447 450 451
f 448 452 449
o EdgeLandLow
usemtl Metal_878c8f
v -0.03 1.62 -0.38
v 0.03 1.62 -0.38
v 0.03 2.02 -0.38
v -0.03 2.02 -0.38
v -0.03 1.62 -0.21
v 0.03 1.62 -0.21
v 0.03 2.02 -0.21
v -0.03 2.02 -0.21
f 453 456 455 454
f 457 458 459 460
f 453 454 458 457
f 456 460 459 455
f 453 457 460 456
f 454 455 459 458
o EdgeLandHigh
usemtl Metal_878c8f
v -0.03 2.14 -0.38
v 0.03 2.14 -0.38
v 0.03 4.908398 -0.38
v -0.03 4.908398 -0.38
v -0.03 2.14 -0.21
v 0.03 2.14 -0.21
v 0.03 4.908398 -0.21
v -0.03 4.908398 -0.21
f 461 464 463 462
f 465 466 467 468
f 461 462 466 465
f 464 468 467 463
f 461 465 468 464
f 462 463 467 466
o Tier1FlatFwd
usemtl Metal_54585b
v -0.13 1.62 -0.21
v 0.13 1.62 -0.21
v 0.13 2.96 -0.21
v -0.13 2.96 -0.21
v -0.13 1.62 -0.06
v 0.13 1.62 -0.06
v 0.13 2.96 -0.06
v -0.13 2.96 -0.06
f 469 472 471 470
f 473 474 475 476
f 469 470 474 473
f 472 476 475 471
f 469 473 476 472
f 470 471 475 474
o Tier1FlatSpine
usemtl Metal_54585b
v -0.13 1.62 0.06
v 0.13 1.62 0.06
v 0.13 2.96 0.06
v -0.13 2.96 0.06
v -0.13 1.62 0.29
v 0.13 1.62 0.29
v 0.13 2.96 0.29
v -0.13 2.96 0.29
f 477 480 479 478
f 481 482 483 484
f 477 478 482 481
f 480 484 483 479
f 477 481 484 480
f 478 479 483 482
o Tier1Fuller
usemtl CorrodedMetal_383b3e
v -0.095 1.76 -0.06
v 0.095 1.76 -0.06
v 0.095 2.96 -0.06
v -0.095 2.96 -0.06
v -0.095 1.76 0.06
v 0.095 1.76 0.06
v 0.095 2.96 0.06
v -0.095 2.96 0.06
f 485 488 487 486
f 489 490 491 492
f 485 486 490 489
f 488 492 491 487
f 485 489 492 488
f 486 487 491 490
o Tier1FullerFoot
usemtl Metal_54585b
v -0.13 1.62 -0.06
v 0.13 1.62 -0.06
v 0.13 1.76 -0.06
v -0.13 1.76 -0.06
v -0.13 1.62 0.06
v 0.13 1.62 0.06
v 0.13 1.76 0.06
v -0.13 1.76 0.06
f 493 496 495 494
f 497 498 499 500
f 493 494 498 497
f 496 500 499 495
f 493 497 500 496
f 494 495 499 498
o Tier1Rib
usemtl CorrodedMetal_2b2c2e
v -0.155 1.62 0.29
v 0.155 1.62 0.29
v 0.155 2.96 0.29
v -0.155 2.96 0.29
v -0.155 1.62 0.465
v 0.155 1.62 0.465
v 0.155 2.96 0.465
v -0.155 2.96 0.465
f 501 504 503 502
f 505 506 507 508
f 501 502 506 505
f 504 508 507 503
f 501 505 508 504
f 502 503 507 506
o Tier1BevelLowPX
usemtl Metal_878c8f
v 0.03 2.02 -0.38
v 0.03 1.62 -0.38
v 0.03 1.62 -0.21
v 0.03 2.02 -0.21
v 0.13 2.02 -0.21
v 0.13 1.62 -0.21
f 509 510 511 512
f 512 511 514 513
f 509 513 514 510
f 509 512 513
f 510 514 511
o Tier1BevelLowNX
usemtl Metal_878c8f
v -0.03 1.62 -0.38
v -0.03 2.02 -0.38
v -0.03 2.02 -0.21
v -0.03 1.62 -0.21
v -0.13 1.62 -0.21
v -0.13 2.02 -0.21
f 515 516 517 518
f 518 517 520 519
f 515 519 520 516
f 515 518 519
f 516 520 517
o Tier1BevelHighPX
usemtl Metal_878c8f
v 0.03 2.96 -0.38
v 0.03 2.14 -0.38
v 0.03 2.14 -0.21
v 0.03 2.96 -0.21
v 0.13 2.96 -0.21
v 0.13 2.14 -0.21
f 521 522 523 524
f 524 523 526 525
f 521 525 526 522
f 521 524 525
f 522 526 523
o Tier1BevelHighNX
usemtl Metal_878c8f
v -0.03 2.14 -0.38
v -0.03 2.96 -0.38
v -0.03 2.96 -0.21
v -0.03 2.14 -0.21
v -0.13 2.14 -0.21
v -0.13 2.96 -0.21
f 527 528 529 530
f 530 529 532 531
f 527 531 532 528
f 527 530 531
f 528 532 529
o NickFloor
usemtl Metal_54585b
v -0.059412 2.02 -0.33
v 0.059412 2.02 -0.33
v 0.059412 2.14 -0.33
v -0.059412 2.14 -0.33
v -0.059412 2.02 -0.21
v 0.059412 2.02 -0.21
v 0.059412 2.14 -0.21
v -0.059412 2.14 -0.21
f 533 536 535 534
f 537 538 539 540
f 533 534 538 537
f 536 540 539 535
f 533 537 540 536
f 534 535 539 538
o NickBevelPX
usemtl Metal_878c8f
v 0.059412 2.14 -0.33
v 0.059412 2.02 -0.33
v 0.059412 2.02 -0.21
v 0.059412 2.14 -0.21
v 0.13 2.14 -0.21
v 0.13 2.02 -0.21
f 541 542 543 544
f 544 543 546 545
f 541 545 546 542
f 541 544 545
f 542 546 543
o NickBevelNX
usemtl Metal_878c8f
v -0.059412 2.02 -0.33
v -0.059412 2.14 -0.33
v -0.059412 2.14 -0.21
v -0.059412 2.02 -0.21
v -0.13 2.02 -0.21
v -0.13 2.14 -0.21
f 547 548 549 550
f 550 549 552 551
f 547 551 552 548
f 547 550 551
f 548 552 549
o NickBreak
usemtl Metal_54585b
v 0.03 2.14 -0.33
v -0.03 2.14 -0.33
v -0.03 2.02 -0.33
v 0.03 2.02 -0.33
v 0.03 2.02 -0.38
v -0.03 2.02 -0.38
f 553 554 555 556
f 556 555 558 557
f 553 557 558 554
f 553 556 557
f 554 558 555
o Tier2FlatFwd
usemtl Metal_54585b
v -0.1 2.96 -0.21
v 0.1 2.96 -0.21
v 0.1 4.14 -0.21
v -0.1 4.14 -0.21
v -0.1 2.96 -0.06
v 0.1 2.96 -0.06
v 0.1 4.14 -0.06
v -0.1 4.14 -0.06
f 559 562 561 560
f 563 564 565 566
f 559 560 564 563
f 562 566 565 561
f 559 563 566 562
f 560 561 565 564
o Tier2FlatSpine
usemtl Metal_54585b
v -0.1 2.96 0.06
v 0.1 2.96 0.06
v 0.1 4.14 0.06
v -0.1 4.14 0.06
v -0.1 2.96 0.12
v 0.1 2.96 0.12
v 0.1 4.14 0.12
v -0.1 4.14 0.12
f 567 570 569 568
f 571 572 573 574
f 567 568 572 571
f 570 574 573 569
f 567 571 574 570
f 568 569 573 572
o Tier2Fuller
usemtl CorrodedMetal_383b3e
v -0.065 2.96 -0.06
v 0.065 2.96 -0.06
v 0.065 4 -0.06
v -0.065 4 -0.06
v -0.065 2.96 0.06
v 0.065 2.96 0.06
v 0.065 4 0.06
v -0.065 4 0.06
f 575 578 577 576
f 579 580 581 582
f 575 576 580 579
f 578 582 581 577
f 575 579 582 578
f 576 577 581 580
o Tier2FullerHead
usemtl Metal_54585b
v -0.1 4 -0.06
v 0.1 4 -0.06
v 0.1 4.14 -0.06
v -0.1 4.14 -0.06
v -0.1 4 0.06
v 0.1 4 0.06
v 0.1 4.14 0.06
v -0.1 4.14 0.06
f 583 586 585 584
f 587 588 589 590
f 583 584 588 587
f 586 590 589 585
f 583 587 590 586
f 584 585 589 588
o Tier2Rib
usemtl CorrodedMetal_2b2c2e
v -0.125 2.96 0.12
v 0.125 2.96 0.12
v 0.125 4.14 0.12
v -0.125 4.14 0.12
v -0.125 2.96 0.295
v 0.125 2.96 0.295
v 0.125 4.14 0.295
v -0.125 4.14 0.295
f 591 594 593 592
f 595 596 597 598
f 591 592 596 595
f 594 598 597 593
f 591 595 598 594
f 592 593 597 596
o Tier2BevelPX
usemtl Metal_878c8f
v 0.03 4.14 -0.38
v 0.03 2.96 -0.38
v 0.03 2.96 -0.21
v 0.03 4.14 -0.21
v 0.1 4.14 -0.21
v 0.1 2.96 -0.21
f 599 600 601 602
f 602 601 604 603
f 599 603 604 600
f 599 602 603
f 600 604 601
o Tier2BevelNX
usemtl Metal_878c8f
v -0.03 2.96 -0.38
v -0.03 4.14 -0.38
v -0.03 4.14 -0.21
v -0.03 2.96 -0.21
v -0.1 2.96 -0.21
v -0.1 4.14 -0.21
f 605 606 607 608
f 608 607 610 609
f 605 609 610 606
f 605 608 609
f 606 610 607
o Tier2Fillet
usemtl CorrodedMetal_2b2c2e
v 0.125 2.96 0.38
v -0.125 2.96 0.38
v -0.125 2.96 0.295
v 0.125 2.96 0.295
v 0.125 3.045 0.295
v -0.125 3.045 0.295
f 611 612 613 614
f 614 613 616 615
f 611 615 616 612
f 611 614 615
f 612 616 613
o Tier3Flat
usemtl Metal_54585b
v -0.07 4.14 -0.21
v 0.07 4.14 -0.21
v 0.07 4.83779 -0.21
v -0.07 4.83779 -0.21
v -0.07 4.14 -0.024168
v 0.07 4.14 -0.024168
v 0.07 4.83779 -0.024168
v -0.07 4.83779 -0.024168
f 617 620 619 618
f 621 622 623 624
f 617 618 622 621
f 620 624 623 619
f 617 621 624 620
f 618 619 623 622
o Tier3FlatTaper
usemtl Metal_54585b
v 0.07 4.83779 -0.024168
v -0.07 4.83779 -0.024168
v -0.07 4.83779 -0.21
v 0.07 4.83779 -0.21
v 0.07 4.89053 -0.21
v -0.07 4.89053 -0.21
f 625 626 627 628
f 628 627 630 629
f 625 629 630 626
f 625 628 629
f 626 630 627
o Tier3Crown1
usemtl Metal_54585b
v 0.07 5.073085 -0.171197
v -0.07 5.073085 -0.171197
v -0.07 4.959232 -0.100054
v 0.07 4.959232 -0.100054
v 0.07 4.89053 -0.21
v -0.07 4.89053 -0.21
f 631 632 633 634
f 634 633 636 635
f 631 635 636 632
f 631 634 635
f 632 636 633
o Tier3Crown2
usemtl Metal_54585b
v -0.07 4.83779 -0.024168
v 0.07 4.83779 -0.024168
v 0.07 4.959232 -0.100054
v -0.07 4.959232 -0.100054
v -0.07 4.89053 -0.21
v 0.07 4.89053 -0.21
f 637 638 639 640
f 640 639 642 641
f 637 641 642 638
f 637 640 641
f 638 642 639
o Tier3Rib
usemtl CorrodedMetal_2b2c2e
v -0.095 4.14 -0.024168
v 0.095 4.14 -0.024168
v 0.095 4.83779 -0.024168
v -0.095 4.83779 -0.024168
v -0.095 4.14 0.125
v 0.095 4.14 0.125
v 0.095 4.83779 0.125
v -0.095 4.83779 0.125
f 643 646 645 644
f 647 648 649 650
f 643 644 648 647
f 646 650 649 645
f 643 647 650 646
f 644 645 649 648
o Tier3RibPlunge
usemtl CorrodedMetal_2b2c2e
v 0.095 4.931001 0.125
v -0.095 4.931001 0.125
v -0.095 4.83779 0.125
v 0.095 4.83779 0.125
v 0.095 4.83779 -0.024168
v -0.095 4.83779 -0.024168
f 651 652 653 654
f 654 653 656 655
f 651 655 656 652
f 651 654 655
f 652 656 653
o Tier3Fillet
usemtl CorrodedMetal_2b2c2e
v 0.095 4.14 0.21
v -0.095 4.14 0.21
v -0.095 4.14 0.125
v 0.095 4.14 0.125
v 0.095 4.225 0.125
v -0.095 4.225 0.125
f 657 658 659 660
f 660 659 662 661
f 657 661 662 658
f 657 660 661
f 658 662 659
o TipLandEdge1
usemtl Metal_878c8f
v 0.03 4.908398 -0.38
v -0.03 4.908398 -0.38
v -0.03 5.078742 -0.346845
v 0.03 5.078742 -0.346845
v 0.03 5.043541 -0.165987
v -0.03 5.043541 -0.165987
f 663 664 665 666
f 666 665 668 667
f 663 667 668 664
f 663 666 667
f 664 668 665
o TipLandEdge2
usemtl Metal_878c8f
v -0.03 5.549544 -0.255209
v 0.03 5.549544 -0.255209
v 0.03 5.078742 -0.346845
v -0.03 5.078742 -0.346845
v -0.03 5.043541 -0.165987
v 0.03 5.043541 -0.165987
f 669 670 671 672
f 672 671 674 673
f 669 673 674 670
f 669 672 673
f 670 674 671
o TipLandClip1
usemtl CorrodedMetal_2b2c2e
v 0.03 5.549544 -0.255209
v -0.03 5.549544 -0.255209
v -0.03 5.139177 -0.007531
v 0.03 5.139177 -0.007531
v 0.03 5.043541 -0.165987
v -0.03 5.043541 -0.165987
f 675 676 677 678
f 678 677 680 679
f 675 679 680 676
f 675 678 679
f 676 680 677
o TipLandClip2
usemtl CorrodedMetal_2b2c2e
v -0.03 4.927876 0.12
v 0.03 4.927876 0.12
v 0.03 5.139177 -0.007531
v -0.03 5.139177 -0.007531
v -0.03 5.043541 -0.165987
v 0.03 5.043541 -0.165987
f 681 682 683 684
f 684 683 686 685
f 681 685 686 682
f 681 684 685
f 682 686 683
o FacetEdgePX
usemtl Metal_878c8f
v 0.002744 4.136 -0.373587
v 0.03 4.136 -0.38
v 0.03 4.912398 -0.38
v 0.002744 4.912398 -0.373587
v 0.042744 4.136 -0.203587
v 0.07 4.136 -0.21
v 0.07 4.912398 -0.21
v 0.042744 4.912398 -0.203587
f 687 690 689 688
f 691 692 693 694
f 687 688 692 691
f 690 694 693 689
f 687 691 694 690
f 688 689 693 692
o FacetRisePX
usemtl Metal_878c8f
v 0.07 4.873053 -0.213715
v 0.042744 4.87172 -0.207442
v 0.042744 5.071752 -0.164924
v 0.07 5.073085 -0.171197
v 0.03 4.908398 -0.38
v 0.002744 4.907065 -0.373727
v 0.002744 5.107097 -0.331209
v 0.03 5.10843 -0.337482
f 695 698 697 696
f 699 700 701 702
f 695 696 700 699
f 698 702 701 697
f 695 699 702 698
f 696 697 701 700
o FacetRisePointPX
usemtl Metal_878c8f
v 0.002744 5.518667 -0.243727
v 0.03 5.52 -0.25
v 0.03 5.10843 -0.337482
v 0.002744 5.107097 -0.331209
v 0.042744 5.071752 -0.164924
v 0.07 5.073085 -0.171197
f 703 704 705 706
f 706 705 708 707
f 703 707 708 704
f 703 706 707
f 704 708 705
o FacetClipPX
usemtl CorrodedMetal_2b2c2e
v 0.042744 4.834392 -0.029607
v 0.07 4.83779 -0.024168
v 0.07 5.073085 -0.171197
v 0.042744 5.069687 -0.176635
v 0.002744 4.924478 0.114561
v 0.03 4.927876 0.12
v 0.03 5.163171 -0.027029
v 0.002744 5.159773 -0.032467
f 709 712 711 710
f 713 714 715 716
f 709 710 714 713
f 712 716 715 711
f 709 713 716 712
f 710 711 715 714
o FacetClipPointPX
usemtl CorrodedMetal_2b2c2e
v 0.03 5.52 -0.25
v 0.002744 5.516602 -0.255439
v 0.002744 5.159773 -0.032467
v 0.03 5.163171 -0.027029
v 0.07 5.073085 -0.171197
v 0.042744 5.069687 -0.176635
f 717 718 719 720
f 720 719 722 721
f 717 721 722 718
f 717 720 721
f 718 722 719
o FacetEdgeNX
usemtl Metal_878c8f
v -0.03 4.136 -0.38
v -0.002744 4.136 -0.373587
v -0.002744 4.912398 -0.373587
v -0.03 4.912398 -0.38
v -0.07 4.136 -0.21
v -0.042744 4.136 -0.203587
v -0.042744 4.912398 -0.203587
v -0.07 4.912398 -0.21
f 723 726 725 724
f 727 728 729 730
f 723 724 728 727
f 726 730 729 725
f 723 727 730 726
f 724 725 729 728
o FacetRiseNX
usemtl Metal_878c8f
v -0.042744 4.87172 -0.207442
v -0.07 4.873053 -0.213715
v -0.07 5.073085 -0.171197
v -0.042744 5.071752 -0.164924
v -0.002744 4.907065 -0.373727
v -0.03 4.908398 -0.38
v -0.03 5.10843 -0.337482
v -0.002744 5.107097 -0.331209
f 731 734 733 732
f 735 736 737 738
f 731 732 736 735
f 734 738 737 733
f 731 735 738 734
f 732 733 737 736
o FacetRisePointNX
usemtl Metal_878c8f
v -0.03 5.52 -0.25
v -0.002744 5.518667 -0.243727
v -0.002744 5.107097 -0.331209
v -0.03 5.10843 -0.337482
v -0.07 5.073085 -0.171197
v -0.042744 5.071752 -0.164924
f 739 740 741 742
f 742 741 744 743
f 739 743 744 740
f 739 742 743
f 740 744 741
o FacetClipNX
usemtl CorrodedMetal_2b2c2e
v -0.07 4.83779 -0.024168
v -0.042744 4.834392 -0.029607
v -0.042744 5.069687 -0.176635
v -0.07 5.073085 -0.171197
v -0.03 4.927876 0.12
v -0.002744 4.924478 0.114561
v -0.002744 5.159773 -0.032467
v -0.03 5.163171 -0.027029
f 745 748 747 746
f 749 750 751 752
f 745 746 750 749
f 748 752 751 747
f 745 749 752 748
f 746 747 751 750
o FacetClipPointNX
usemtl CorrodedMetal_2b2c2e
v -0.002744 5.516602 -0.255439
v -0.03 5.52 -0.25
v -0.03 5.163171 -0.027029
v -0.002744 5.159773 -0.032467
v -0.042744 5.069687 -0.176635
v -0.07 5.073085 -0.171197
f 753 754 755 756
f 756 755 758 757
f 753 757 758 754
f 753 756 757
f 754 758 755
